<svg fill="#fff" viewBox="0 0 73 32" xmlns="http://www.w3.org/2000/svg"><path d="m4.92 26.316h4.912v3.438h-9.332v-13.263h4.42zm7.41-17.439a6.877 6.877 0 1 1 13.754 0 6.877 6.877 0 0 1 -13.754 0zm4.42 0a2.456 2.456 0 1 0 4.913 0 2.456 2.456 0 0 0 -4.913 0zm24.634 2.21 2.702 4.422h4.912l-4.421-6.631 4.42-6.632h-4.911l-2.702 4.421v-4.42h-4.42v13.262h4.42zm-7.86 4.667c.683 0 1.834-.1 2.457-.286v-5.121c-.448.598-1.652.987-2.456.987a2.456 2.456 0 1 1 0-4.913c.804 0 2.008.39 2.456.987v-5.12c-.624-.187-1.775-.288-2.457-.288a6.877 6.877 0 1 0 0 13.754zm-28.604-.244h-4.42v-13.264h6.877c2.441 0 4.42 1.734 4.42 4.175 0 1.859-1.005 3.551-2.63 3.857l3.367 5.23h-4.911l-2.702-4.42v4.42zm0-6.877h.983a1.474 1.474 0 1 0 0-2.948h-.983zm44.568 6.877h9.333v-3.44h-4.912v-1.474h3.93v-3.438h-3.93v-1.474h4.912v-3.439h-9.333zm22.129 13.329.169.289h-.36l-.12-.233c-.08-.156-.147-.254-.2-.294a.322.322 0 0 0 -.201-.061h-.076v.588h-.29v-1.432h.29c.273 0 .425.001.458.004a.568.568 0 0 1 .225.057c.053.03.098.076.134.137.035.062.054.13.054.206a.379.379 0 0 1 -.102.265.456.456 0 0 1 -.284.136c.036.013.07.03.1.054.036.033.069.07.097.11.01.014.046.072.106.174zm-.261-.612a.183.183 0 0 0 .035-.11.178.178 0 0 0 -.132-.174 1.388 1.388 0 0 0 -.312-.02h-.118v.391h.118c.168 0 .273-.006.313-.02a.185.185 0 0 0 .096-.067zm-11.553-22.543h2.457v9.825h4.42v-9.825h2.457v-3.438h-9.333zm-5.403 18.42a1.474 1.474 0 0 1 -2.948 0v-7.613h-4.42v7.614a5.894 5.894 0 0 0 11.788 0v-7.615h-4.42zm-14.614.983h2.051c-.188.45-.71 1.228-2.05 1.228-1.515 0-2.702-1.3-2.702-2.947 0-1.791 1.348-2.868 2.701-2.947 1.48-.087 2.11.52 2.554.965l3.046-2.889c-1.468-1.468-3.245-2.251-5.6-2.251a6.877 6.877 0 0 0 0 13.754c3.951 0 6.387-2.835 6.387-6.386v-1.719h-6.386zm20.017 4.667h9.333v-3.439h-4.912v-1.474h3.93v-3.438h-3.93v-1.474h4.912v-3.439h-9.333zm-30.322-13.264 4.421 13.263h-4.42l-.474-1.965h-3.475l-.473 1.965h-4.42l4.42-13.263zm-1.3 7.86-.91-3.78-.91 3.78zm-17.366 5.403h9.333v-3.439h-4.912v-1.474h3.93v-3.438h-3.93v-1.474h4.912v-3.438h-9.333zm61.682-1.35c0 .236-.06.46-.178.672a1.356 1.356 0 0 1 -1.843.498 1.273 1.273 0 0 1 -.499-.497 1.358 1.358 0 0 1 .004-1.35c.116-.21.29-.384.501-.498a1.372 1.372 0 0 1 1.331 0c.213.116.38.281.502.498.121.215.182.441.182.677zm-.262 0a1.097 1.097 0 0 0 -.55-.946 1.098 1.098 0 0 0 -1.068 0 1.096 1.096 0 0 0 -.407 1.487 1.085 1.085 0 0 0 2.025-.541z"/></svg>